# xmcd CD database file
# Copyright (C) 1996 Ti Kan
#
# Track frame offsets:
# 	150
# 	14740
# 	33815
# 	46777
# 	67115
# 	81345
# 	94590
# 	112757
# 	126560
# 	138712
# 	151730
# 	169140
# 	181525
# 	195245
#
# Disc length: 2811 seconds
#
# Revision: 1
# Processed by: cddbd v1.4b41PL1 Copyright (c) Steve Scherf et al.
# Submitted via: DiscPlay 3.4.1
#
DISCID=af0af90e
DTITLE=John Williamson - Mallee Boy
DYEAR=1900
DGENRE=
TTITLE0=Mallee Boy
TTITLE1=Galleries Of Pink Galahs
TTITLE2=Back At The Isa
TTITLE3=Raining On The Rock
TTITLE4=Three Rivers Hotel
TTITLE5=Cracker Night
TTITLE6=True Blue
TTITLE7=Humpin' My Bluey
TTITLE8=The Budgie Song
TTITLE9=I'm In The Mood
TTITLE10=Cootamundra Wattle
TTITLE11=Paint Me A Wheelbarrow
TTITLE12=Diamantina Drover
TTITLE13=Show Me A Better Way
EXTD=
EXTT0=
EXTT1=
EXTT2=
EXTT3=
EXTT4=
EXTT5=
EXTT6=
EXTT7=
EXTT8=
EXTT9=
EXTT10=
EXTT11=
EXTT12=
EXTT13=
PLAYORDER=
